<svg id="visual" viewBox="0 0 1920 1080" width="1920" height="1080" xmlns="http://www.w3.org/2000/svg" xmlns:xlink="http://www.w3.org/1999/xlink" version="1.1"><rect x="0" y="0" width="1920" height="1080" fill="#0b0b0c"></rect><defs><linearGradient id="grad1_0" x1="43.8%" y1="0%" x2="100%" y2="100%"><stop offset="14.444444444444446%" stop-color="#ffc107" stop-opacity="1"></stop><stop offset="85.55555555555554%" stop-color="#ffc107" stop-opacity="1"></stop></linearGradient></defs><defs><linearGradient id="grad1_1" x1="43.8%" y1="0%" x2="100%" y2="100%"><stop offset="14.444444444444446%" stop-color="#ffc107" stop-opacity="1"></stop><stop offset="85.55555555555554%" stop-color="#f58040" stop-opacity="1"></stop></linearGradient></defs><defs><linearGradient id="grad1_2" x1="43.8%" y1="0%" x2="100%" y2="100%"><stop offset="14.444444444444446%" stop-color="#c4525a" stop-opacity="1"></stop><stop offset="85.55555555555554%" stop-color="#f58040" stop-opacity="1"></stop></linearGradient></defs><defs><linearGradient id="grad1_3" x1="43.8%" y1="0%" x2="100%" y2="100%"><stop offset="14.444444444444446%" stop-color="#c4525a" stop-opacity="1"></stop><stop offset="85.55555555555554%" stop-color="#7e3a5a" stop-opacity="1"></stop></linearGradient></defs><defs><linearGradient id="grad1_4" x1="43.8%" y1="0%" x2="100%" y2="100%"><stop offset="14.444444444444446%" stop-color="#39273d" stop-opacity="1"></stop><stop offset="85.55555555555554%" stop-color="#7e3a5a" stop-opacity="1"></stop></linearGradient></defs><defs><linearGradient id="grad1_5" x1="43.8%" y1="0%" x2="100%" y2="100%"><stop offset="14.444444444444446%" stop-color="#39273d" stop-opacity="1"></stop><stop offset="85.55555555555554%" stop-color="#0b0b0c" stop-opacity="1"></stop></linearGradient></defs><defs><linearGradient id="grad2_0" x1="0%" y1="0%" x2="56.3%" y2="100%"><stop offset="14.444444444444446%" stop-color="#ffc107" stop-opacity="1"></stop><stop offset="85.55555555555554%" stop-color="#ffc107" stop-opacity="1"></stop></linearGradient></defs><defs><linearGradient id="grad2_1" x1="0%" y1="0%" x2="56.3%" y2="100%"><stop offset="14.444444444444446%" stop-color="#f58040" stop-opacity="1"></stop><stop offset="85.55555555555554%" stop-color="#ffc107" stop-opacity="1"></stop></linearGradient></defs><defs><linearGradient id="grad2_2" x1="0%" y1="0%" x2="56.3%" y2="100%"><stop offset="14.444444444444446%" stop-color="#f58040" stop-opacity="1"></stop><stop offset="85.55555555555554%" stop-color="#c4525a" stop-opacity="1"></stop></linearGradient></defs><defs><linearGradient id="grad2_3" x1="0%" y1="0%" x2="56.3%" y2="100%"><stop offset="14.444444444444446%" stop-color="#7e3a5a" stop-opacity="1"></stop><stop offset="85.55555555555554%" stop-color="#c4525a" stop-opacity="1"></stop></linearGradient></defs><defs><linearGradient id="grad2_4" x1="0%" y1="0%" x2="56.3%" y2="100%"><stop offset="14.444444444444446%" stop-color="#7e3a5a" stop-opacity="1"></stop><stop offset="85.55555555555554%" stop-color="#39273d" stop-opacity="1"></stop></linearGradient></defs><defs><linearGradient id="grad2_5" x1="0%" y1="0%" x2="56.3%" y2="100%"><stop offset="14.444444444444446%" stop-color="#0b0b0c" stop-opacity="1"></stop><stop offset="85.55555555555554%" stop-color="#39273d" stop-opacity="1"></stop></linearGradient></defs><g transform="translate(1920, 0)"><path d="M0 918C-110.4 889.4 -220.8 860.9 -341.4 824.1C-461.9 787.3 -592.6 742.3 -649.1 649.1C-705.7 556 -688.2 414.7 -720.6 298.5C-753.1 182.3 -835.5 91.1 -918 0L0 0Z" fill="#201b27"></path><path d="M0 765C-92 741.2 -184 717.4 -284.5 686.8C-384.9 656.1 -493.8 618.6 -540.9 540.9C-588.1 463.3 -573.5 345.6 -600.5 248.7C-627.6 151.9 -696.3 76 -765 0L0 0Z" fill="#5a314f"></path><path d="M0 612C-73.6 593 -147.2 573.9 -227.6 549.4C-307.9 524.9 -395 494.9 -432.7 432.7C-470.5 370.6 -458.8 276.5 -480.4 199C-502.1 121.5 -557 60.8 -612 0L0 0Z" fill="#a3445d"></path><path d="M0 459C-55.2 444.7 -110.4 430.4 -170.7 412.1C-230.9 393.7 -296.3 371.1 -324.6 324.6C-352.8 278 -344.1 207.4 -360.3 149.2C-376.5 91.1 -417.8 45.6 -459 0L0 0Z" fill="#e06650"></path><path d="M0 306C-36.8 296.5 -73.6 287 -113.8 274.7C-154 262.4 -197.5 247.4 -216.4 216.4C-235.2 185.3 -229.4 138.2 -240.2 99.5C-251 60.8 -278.5 30.4 -306 0L0 0Z" fill="#ff9f2b"></path><path d="M0 153C-18.4 148.2 -36.8 143.5 -56.9 137.4C-77 131.2 -98.8 123.7 -108.2 108.2C-117.6 92.7 -114.7 69.1 -120.1 49.7C-125.5 30.4 -139.3 15.2 -153 0L0 0Z" fill="#ffc107"></path></g><g transform="translate(0, 1080)"><path d="M0 -918C118.9 -904 237.7 -889.9 351.3 -848.1C464.9 -806.3 573.2 -736.8 644.9 -644.9C716.5 -553 751.4 -438.8 790.8 -327.6C830.2 -216.4 874.1 -108.2 918 0L0 0Z" fill="#201b27"></path><path d="M0 -765C99 -753.3 198.1 -741.6 292.8 -706.8C387.4 -671.9 477.7 -614 537.4 -537.4C597.1 -460.8 626.2 -365.6 659 -273C691.9 -180.3 728.4 -90.2 765 0L0 0Z" fill="#5a314f"></path><path d="M0 -612C79.2 -602.6 158.5 -593.3 234.2 -565.4C309.9 -537.5 382.2 -491.2 429.9 -429.9C477.7 -368.7 501 -292.5 527.2 -218.4C553.5 -144.3 582.7 -72.1 612 0L0 0Z" fill="#a3445d"></path><path d="M0 -459C59.4 -452 118.9 -445 175.7 -424.1C232.5 -403.2 286.6 -368.4 322.4 -322.4C358.3 -276.5 375.7 -219.4 395.4 -163.8C415.1 -108.2 437.1 -54.1 459 0L0 0Z" fill="#e06650"></path><path d="M0 -306C39.6 -301.3 79.2 -296.6 117.1 -282.7C155 -268.8 191.1 -245.6 215 -215C238.8 -184.3 250.5 -146.3 263.6 -109.2C276.7 -72.1 291.4 -36.1 306 0L0 0Z" fill="#ff9f2b"></path><path d="M0 -153C19.8 -150.7 39.6 -148.3 58.6 -141.4C77.5 -134.4 95.5 -122.8 107.5 -107.5C119.4 -92.2 125.2 -73.1 131.8 -54.6C138.4 -36.1 145.7 -18 153 0L0 0Z" fill="#ffc107"></path></g></svg>