<svg id="visual" viewBox="0 0 900 600" width="900" height="600" xmlns="http://www.w3.org/2000/svg" xmlns:xlink="http://www.w3.org/1999/xlink" version="1.1"><path d="M0 282L16.7 282C33.3 282 66.7 282 100 286.8C133.3 291.7 166.7 301.3 200 297.8C233.3 294.3 266.7 277.7 300 282.2C333.3 286.7 366.7 312.3 400 318.8C433.3 325.3 466.7 312.7 500 298.5C533.3 284.3 566.7 268.7 600 264.2C633.3 259.7 666.7 266.3 700 272.5C733.3 278.7 766.7 284.3 800 280C833.3 275.7 866.7 261.3 883.3 254.2L900 247L900 601L883.3 601C866.7 601 833.3 601 800 601C766.7 601 733.3 601 700 601C666.7 601 633.3 601 600 601C566.7 601 533.3 601 500 601C466.7 601 433.3 601 400 601C366.7 601 333.3 601 300 601C266.7 601 233.3 601 200 601C166.7 601 133.3 601 100 601C66.7 601 33.3 601 16.7 601L0 601Z" fill="#ffc107"></path><path d="M0 344L16.7 336.8C33.3 329.7 66.7 315.3 100 317.2C133.3 319 166.7 337 200 336.7C233.3 336.3 266.7 317.7 300 322.8C333.3 328 366.7 357 400 362.2C433.3 367.3 466.7 348.7 500 338C533.3 327.3 566.7 324.7 600 331C633.3 337.3 666.7 352.7 700 357.8C733.3 363 766.7 358 800 354C833.3 350 866.7 347 883.3 345.5L900 344L900 601L883.3 601C866.7 601 833.3 601 800 601C766.7 601 733.3 601 700 601C666.7 601 633.3 601 600 601C566.7 601 533.3 601 500 601C466.7 601 433.3 601 400 601C366.7 601 333.3 601 300 601C266.7 601 233.3 601 200 601C166.7 601 133.3 601 100 601C66.7 601 33.3 601 16.7 601L0 601Z" fill="#93b836"></path><path d="M0 397L16.7 393.2C33.3 389.3 66.7 381.7 100 376.2C133.3 370.7 166.7 367.3 200 366.7C233.3 366 266.7 368 300 367C333.3 366 366.7 362 400 368.2C433.3 374.3 466.7 390.7 500 389.2C533.3 387.7 566.7 368.3 600 366.7C633.3 365 666.7 381 700 385.3C733.3 389.7 766.7 382.3 800 384.3C833.3 386.3 866.7 397.7 883.3 403.3L900 409L900 601L883.3 601C866.7 601 833.3 601 800 601C766.7 601 733.3 601 700 601C666.7 601 633.3 601 600 601C566.7 601 533.3 601 500 601C466.7 601 433.3 601 400 601C366.7 601 333.3 601 300 601C266.7 601 233.3 601 200 601C166.7 601 133.3 601 100 601C66.7 601 33.3 601 16.7 601L0 601Z" fill="#38a062"></path><path d="M0 407L16.7 411.8C33.3 416.7 66.7 426.3 100 428.5C133.3 430.7 166.7 425.3 200 428.3C233.3 431.3 266.7 442.7 300 447.2C333.3 451.7 366.7 449.3 400 441C433.3 432.7 466.7 418.3 500 419.3C533.3 420.3 566.7 436.7 600 442.3C633.3 448 666.7 443 700 446.8C733.3 450.7 766.7 463.3 800 467.5C833.3 471.7 866.7 467.3 883.3 465.2L900 463L900 601L883.3 601C866.7 601 833.3 601 800 601C766.7 601 733.3 601 700 601C666.7 601 633.3 601 600 601C566.7 601 533.3 601 500 601C466.7 601 433.3 601 400 601C366.7 601 333.3 601 300 601C266.7 601 233.3 601 200 601C166.7 601 133.3 601 100 601C66.7 601 33.3 601 16.7 601L0 601Z" fill="#007f76"></path><path d="M0 503L16.7 502.2C33.3 501.3 66.7 499.7 100 502.3C133.3 505 166.7 512 200 510.8C233.3 509.7 266.7 500.3 300 495.7C333.3 491 366.7 491 400 493C433.3 495 466.7 499 500 498.7C533.3 498.3 566.7 493.7 600 490.2C633.3 486.7 666.7 484.3 700 479.5C733.3 474.7 766.7 467.3 800 471.2C833.3 475 866.7 490 883.3 497.5L900 505L900 601L883.3 601C866.7 601 833.3 601 800 601C766.7 601 733.3 601 700 601C666.7 601 633.3 601 600 601C566.7 601 533.3 601 500 601C466.7 601 433.3 601 400 601C366.7 601 333.3 601 300 601C266.7 601 233.3 601 200 601C166.7 601 133.3 601 100 601C66.7 601 33.3 601 16.7 601L0 601Z" fill="#205b68"></path><path d="M0 552L16.7 547.2C33.3 542.3 66.7 532.7 100 528C133.3 523.3 166.7 523.7 200 529.3C233.3 535 266.7 546 300 549.2C333.3 552.3 366.7 547.7 400 549C433.3 550.3 466.7 557.7 500 560C533.3 562.3 566.7 559.7 600 554.5C633.3 549.3 666.7 541.7 700 542C733.3 542.3 766.7 550.7 800 549.3C833.3 548 866.7 537 883.3 531.5L900 526L900 601L883.3 601C866.7 601 833.3 601 800 601C766.7 601 733.3 601 700 601C666.7 601 633.3 601 600 601C566.7 601 533.3 601 500 601C466.7 601 433.3 601 400 601C366.7 601 333.3 601 300 601C266.7 601 233.3 601 200 601C166.7 601 133.3 601 100 601C66.7 601 33.3 601 16.7 601L0 601Z" fill="#343a40"></path></svg>