<svg id="visual" viewBox="0 0 1920 890" width="1920" height="890" xmlns="http://www.w3.org/2000/svg" xmlns:xlink="http://www.w3.org/1999/xlink" version="1.1"><path d="M0 63L53.3 67.5C106.7 72 213.3 81 320 85.5C426.7 90 533.3 90 640 93C746.7 96 853.3 102 960 105C1066.7 108 1173.3 108 1280 93.2C1386.7 78.3 1493.3 48.7 1600 39.7C1706.7 30.7 1813.3 42.3 1866.7 48.2L1920 54L1920 0L1866.7 0C1813.3 0 1706.7 0 1600 0C1493.3 0 1386.7 0 1280 0C1173.3 0 1066.7 0 960 0C853.3 0 746.7 0 640 0C533.3 0 426.7 0 320 0C213.3 0 106.7 0 53.3 0L0 0Z" fill="#ffc107"></path><path d="M0 99L53.3 125.7C106.7 152.3 213.3 205.7 320 238.3C426.7 271 533.3 283 640 274.2C746.7 265.3 853.3 235.7 960 240C1066.7 244.3 1173.3 282.7 1280 285.7C1386.7 288.7 1493.3 256.3 1600 234.2C1706.7 212 1813.3 200 1866.7 194L1920 188L1920 52L1866.7 46.2C1813.3 40.3 1706.7 28.7 1600 37.7C1493.3 46.7 1386.7 76.3 1280 91.2C1173.3 106 1066.7 106 960 103C853.3 100 746.7 94 640 91C533.3 88 426.7 88 320 83.5C213.3 79 106.7 70 53.3 65.5L0 61Z" fill="#a4bb2d"></path><path d="M0 135L53.3 175C106.7 215 213.3 295 320 340.8C426.7 386.7 533.3 398.3 640 377.5C746.7 356.7 853.3 303.3 960 294.5C1066.7 285.7 1173.3 321.3 1280 327.3C1386.7 333.3 1493.3 309.7 1600 305.2C1706.7 300.7 1813.3 315.3 1866.7 322.7L1920 330L1920 186L1866.7 192C1813.3 198 1706.7 210 1600 232.2C1493.3 254.3 1386.7 286.7 1280 283.7C1173.3 280.7 1066.7 242.3 960 238C853.3 233.7 746.7 263.3 640 272.2C533.3 281 426.7 269 320 236.3C213.3 203.7 106.7 150.3 53.3 123.7L0 97Z" fill="#56a956"></path><path d="M0 197L53.3 232.5C106.7 268 213.3 339 320 393.8C426.7 448.7 533.3 487.3 640 471.2C746.7 455 853.3 384 960 364.7C1066.7 345.3 1173.3 377.7 1280 376.2C1386.7 374.7 1493.3 339.3 1600 335C1706.7 330.7 1813.3 357.3 1866.7 370.7L1920 384L1920 328L1866.7 320.7C1813.3 313.3 1706.7 298.7 1600 303.2C1493.3 307.7 1386.7 331.3 1280 325.3C1173.3 319.3 1066.7 283.7 960 292.5C853.3 301.3 746.7 354.7 640 375.5C533.3 396.3 426.7 384.7 320 338.8C213.3 293 106.7 213 53.3 173L0 133Z" fill="#009070"></path><path d="M0 384L53.3 407.7C106.7 431.3 213.3 478.7 320 523.2C426.7 567.7 533.3 609.3 640 640.5C746.7 671.7 853.3 692.3 960 696.7C1066.7 701 1173.3 689 1280 632.7C1386.7 576.3 1493.3 475.7 1600 480.2C1706.7 484.7 1813.3 594.3 1866.7 649.2L1920 704L1920 382L1866.7 368.7C1813.3 355.3 1706.7 328.7 1600 333C1493.3 337.3 1386.7 372.7 1280 374.2C1173.3 375.7 1066.7 343.3 960 362.7C853.3 382 746.7 453 640 469.2C533.3 485.3 426.7 446.7 320 391.8C213.3 337 106.7 266 53.3 230.5L0 195Z" fill="#007375"></path><path d="M0 526L53.3 551.2C106.7 576.3 213.3 626.7 320 651.8C426.7 677 533.3 677 640 696.3C746.7 715.7 853.3 754.3 960 767.8C1066.7 781.3 1173.3 769.7 1280 719.3C1386.7 669 1493.3 580 1600 588.8C1706.7 597.7 1813.3 704.3 1866.7 757.7L1920 811L1920 702L1866.7 647.2C1813.3 592.3 1706.7 482.7 1600 478.2C1493.3 473.7 1386.7 574.3 1280 630.7C1173.3 687 1066.7 699 960 694.7C853.3 690.3 746.7 669.7 640 638.5C533.3 607.3 426.7 565.7 320 521.2C213.3 476.7 106.7 429.3 53.3 405.7L0 382Z" fill="#275563"></path><path d="M0 891L53.3 891C106.7 891 213.3 891 320 891C426.7 891 533.3 891 640 891C746.7 891 853.3 891 960 891C1066.7 891 1173.3 891 1280 891C1386.7 891 1493.3 891 1600 891C1706.7 891 1813.3 891 1866.7 891L1920 891L1920 809L1866.7 755.7C1813.3 702.3 1706.7 595.7 1600 586.8C1493.3 578 1386.7 667 1280 717.3C1173.3 767.7 1066.7 779.3 960 765.8C853.3 752.3 746.7 713.7 640 694.3C533.3 675 426.7 675 320 649.8C213.3 624.7 106.7 574.3 53.3 549.2L0 524Z" fill="#343a40"></path></svg>