<svg id="visual" viewBox="0 0 1920 882" width="1920" height="882" xmlns="http://www.w3.org/2000/svg" xmlns:xlink="http://www.w3.org/1999/xlink" version="1.1"><path d="M0 133L53.3 128.7C106.7 124.3 213.3 115.7 320 115.7C426.7 115.7 533.3 124.3 640 139C746.7 153.7 853.3 174.3 960 186.2C1066.7 198 1173.3 201 1280 217.2C1386.7 233.3 1493.3 262.7 1600 249.3C1706.7 236 1813.3 180 1866.7 152L1920 124L1920 0L1866.7 0C1813.3 0 1706.7 0 1600 0C1493.3 0 1386.7 0 1280 0C1173.3 0 1066.7 0 960 0C853.3 0 746.7 0 640 0C533.3 0 426.7 0 320 0C213.3 0 106.7 0 53.3 0L0 0Z" fill="#ffc107"></path><path d="M0 345L53.3 343.5C106.7 342 213.3 339 320 340.5C426.7 342 533.3 348 640 370C746.7 392 853.3 430 960 435.8C1066.7 441.7 1173.3 415.3 1280 415.3C1386.7 415.3 1493.3 441.7 1600 463.7C1706.7 485.7 1813.3 503.3 1866.7 512.2L1920 521L1920 122L1866.7 150C1813.3 178 1706.7 234 1600 247.3C1493.3 260.7 1386.7 231.3 1280 215.2C1173.3 199 1066.7 196 960 184.2C853.3 172.3 746.7 151.7 640 137C533.3 122.3 426.7 113.7 320 113.7C213.3 113.7 106.7 122.3 53.3 126.7L0 131Z" fill="#a4bb2d"></path><path d="M0 424L53.3 432.8C106.7 441.7 213.3 459.3 320 471.2C426.7 483 533.3 489 640 512.5C746.7 536 853.3 577 960 566.7C1066.7 556.3 1173.3 494.7 1280 475.7C1386.7 456.7 1493.3 480.3 1600 502.3C1706.7 524.3 1813.3 544.7 1866.7 554.8L1920 565L1920 519L1866.7 510.2C1813.3 501.3 1706.7 483.7 1600 461.7C1493.3 439.7 1386.7 413.3 1280 413.3C1173.3 413.3 1066.7 439.7 960 433.8C853.3 428 746.7 390 640 368C533.3 346 426.7 340 320 338.5C213.3 337 106.7 340 53.3 341.5L0 343Z" fill="#56a956"></path><path d="M0 565L53.3 584.2C106.7 603.3 213.3 641.7 320 655C426.7 668.3 533.3 656.7 640 652.3C746.7 648 853.3 651 960 648C1066.7 645 1173.3 636 1280 631.5C1386.7 627 1493.3 627 1600 637.3C1706.7 647.7 1813.3 668.3 1866.7 678.7L1920 689L1920 563L1866.7 552.8C1813.3 542.7 1706.7 522.3 1600 500.3C1493.3 478.3 1386.7 454.7 1280 473.7C1173.3 492.7 1066.7 554.3 960 564.7C853.3 575 746.7 534 640 510.5C533.3 487 426.7 481 320 469.2C213.3 457.3 106.7 439.7 53.3 430.8L0 422Z" fill="#009070"></path><path d="M0 663L53.3 670.3C106.7 677.7 213.3 692.3 320 696.7C426.7 701 533.3 695 640 697.8C746.7 700.7 853.3 712.3 960 721.2C1066.7 730 1173.3 736 1280 728.7C1386.7 721.3 1493.3 700.7 1600 711C1706.7 721.3 1813.3 762.7 1866.7 783.3L1920 804L1920 687L1866.7 676.7C1813.3 666.3 1706.7 645.7 1600 635.3C1493.3 625 1386.7 625 1280 629.5C1173.3 634 1066.7 643 960 646C853.3 649 746.7 646 640 650.3C533.3 654.7 426.7 666.3 320 653C213.3 639.7 106.7 601.3 53.3 582.2L0 563Z" fill="#007375"></path><path d="M0 777L53.3 782.8C106.7 788.7 213.3 800.3 320 797.5C426.7 794.7 533.3 777.3 640 770C746.7 762.7 853.3 765.3 960 777C1066.7 788.7 1173.3 809.3 1280 808C1386.7 806.7 1493.3 783.3 1600 783.3C1706.7 783.3 1813.3 806.7 1866.7 818.3L1920 830L1920 802L1866.7 781.3C1813.3 760.7 1706.7 719.3 1600 709C1493.3 698.7 1386.7 719.3 1280 726.7C1173.3 734 1066.7 728 960 719.2C853.3 710.3 746.7 698.7 640 695.8C533.3 693 426.7 699 320 694.7C213.3 690.3 106.7 675.7 53.3 668.3L0 661Z" fill="#275563"></path><path d="M0 883L53.3 883C106.7 883 213.3 883 320 883C426.7 883 533.3 883 640 883C746.7 883 853.3 883 960 883C1066.7 883 1173.3 883 1280 883C1386.7 883 1493.3 883 1600 883C1706.7 883 1813.3 883 1866.7 883L1920 883L1920 828L1866.7 816.3C1813.3 804.7 1706.7 781.3 1600 781.3C1493.3 781.3 1386.7 804.7 1280 806C1173.3 807.3 1066.7 786.7 960 775C853.3 763.3 746.7 760.7 640 768C533.3 775.3 426.7 792.7 320 795.5C213.3 798.3 106.7 786.7 53.3 780.8L0 775Z" fill="#343a40"></path></svg>