<svg id="visual" viewBox="0 0 1920 1020" width="1920" height="1020" xmlns="http://www.w3.org/2000/svg" xmlns:xlink="http://www.w3.org/1999/xlink" version="1.1"><path d="M0 154L53.3 148.8C106.7 143.7 213.3 133.3 320 133.3C426.7 133.3 533.3 143.7 640 160.7C746.7 177.7 853.3 201.3 960 215C1066.7 228.7 1173.3 232.3 1280 251.2C1386.7 270 1493.3 304 1600 288.7C1706.7 273.3 1813.3 208.7 1866.7 176.3L1920 144L1920 0L1866.7 0C1813.3 0 1706.7 0 1600 0C1493.3 0 1386.7 0 1280 0C1173.3 0 1066.7 0 960 0C853.3 0 746.7 0 640 0C533.3 0 426.7 0 320 0C213.3 0 106.7 0 53.3 0L0 0Z" fill="#ffc107"></path><path d="M0 399L53.3 397.3C106.7 395.7 213.3 392.3 320 394C426.7 395.7 533.3 402.3 640 427.8C746.7 453.3 853.3 497.7 960 504.5C1066.7 511.3 1173.3 480.7 1280 480.7C1386.7 480.7 1493.3 511.3 1600 536.8C1706.7 562.3 1813.3 582.7 1866.7 592.8L1920 603L1920 142L1866.7 174.3C1813.3 206.7 1706.7 271.3 1600 286.7C1493.3 302 1386.7 268 1280 249.2C1173.3 230.3 1066.7 226.7 960 213C853.3 199.3 746.7 175.7 640 158.7C533.3 141.7 426.7 131.3 320 131.3C213.3 131.3 106.7 141.7 53.3 146.8L0 152Z" fill="#a4bb2d"></path><path d="M0 491L53.3 501.2C106.7 511.3 213.3 531.7 320 545.2C426.7 558.7 533.3 565.3 640 592.5C746.7 619.7 853.3 667.3 960 655.5C1066.7 643.7 1173.3 572.3 1280 550.2C1386.7 528 1493.3 555 1600 580.5C1706.7 606 1813.3 630 1866.7 642L1920 654L1920 601L1866.7 590.8C1813.3 580.7 1706.7 560.3 1600 534.8C1493.3 509.3 1386.7 478.7 1280 478.7C1173.3 478.7 1066.7 509.3 960 502.5C853.3 495.7 746.7 451.3 640 425.8C533.3 400.3 426.7 393.7 320 392C213.3 390.3 106.7 393.7 53.3 395.3L0 397Z" fill="#56a956"></path><path d="M0 654L53.3 676C106.7 698 213.3 742 320 757.3C426.7 772.7 533.3 759.3 640 754.3C746.7 749.3 853.3 752.7 960 749.2C1066.7 745.7 1173.3 735.3 1280 730.2C1386.7 725 1493.3 725 1600 737C1706.7 749 1813.3 773 1866.7 785L1920 797L1920 652L1866.7 640C1813.3 628 1706.7 604 1600 578.5C1493.3 553 1386.7 526 1280 548.2C1173.3 570.3 1066.7 641.7 960 653.5C853.3 665.3 746.7 617.7 640 590.5C533.3 563.3 426.7 556.7 320 543.2C213.3 529.7 106.7 509.3 53.3 499.2L0 489Z" fill="#009070"></path><path d="M0 766L53.3 774.5C106.7 783 213.3 800 320 805.2C426.7 810.3 533.3 803.7 640 807C746.7 810.3 853.3 823.7 960 833.8C1066.7 844 1173.3 851 1280 842.5C1386.7 834 1493.3 810 1600 821.8C1706.7 833.7 1813.3 881.3 1866.7 905.2L1920 929L1920 795L1866.7 783C1813.3 771 1706.7 747 1600 735C1493.3 723 1386.7 723 1280 728.2C1173.3 733.3 1066.7 743.7 960 747.2C853.3 750.7 746.7 747.3 640 752.3C533.3 757.3 426.7 770.7 320 755.3C213.3 740 106.7 696 53.3 674L0 652Z" fill="#007375"></path><path d="M0 899L53.3 905.7C106.7 912.3 213.3 925.7 320 922.2C426.7 918.7 533.3 898.3 640 889.8C746.7 881.3 853.3 884.7 960 898.3C1066.7 912 1173.3 936 1280 934.3C1386.7 932.7 1493.3 905.3 1600 905.3C1706.7 905.3 1813.3 932.7 1866.7 946.3L1920 960L1920 927L1866.7 903.2C1813.3 879.3 1706.7 831.7 1600 819.8C1493.3 808 1386.7 832 1280 840.5C1173.3 849 1066.7 842 960 831.8C853.3 821.7 746.7 808.3 640 805C533.3 801.7 426.7 808.3 320 803.2C213.3 798 106.7 781 53.3 772.5L0 764Z" fill="#275563"></path><path d="M0 1021L53.3 1021C106.7 1021 213.3 1021 320 1021C426.7 1021 533.3 1021 640 1021C746.7 1021 853.3 1021 960 1021C1066.7 1021 1173.3 1021 1280 1021C1386.7 1021 1493.3 1021 1600 1021C1706.7 1021 1813.3 1021 1866.7 1021L1920 1021L1920 958L1866.7 944.3C1813.3 930.7 1706.7 903.3 1600 903.3C1493.3 903.3 1386.7 930.7 1280 932.3C1173.3 934 1066.7 910 960 896.3C853.3 882.7 746.7 879.3 640 887.8C533.3 896.3 426.7 916.7 320 920.2C213.3 923.7 106.7 910.3 53.3 903.7L0 897Z" fill="#343a40"></path></svg>