<svg id="visual" viewBox="0 0 1920 1080" width="1920" height="1080" xmlns="http://www.w3.org/2000/svg" xmlns:xlink="http://www.w3.org/1999/xlink" version="1.1"><path d="M0 163L53.3 157.7C106.7 152.3 213.3 141.7 320 141.7C426.7 141.7 533.3 152.3 640 170.3C746.7 188.3 853.3 213.7 960 228C1066.7 242.3 1173.3 245.7 1280 265.3C1386.7 285 1493.3 321 1600 304.8C1706.7 288.7 1813.3 220.3 1866.7 186.2L1920 152L1920 0L1866.7 0C1813.3 0 1706.7 0 1600 0C1493.3 0 1386.7 0 1280 0C1173.3 0 1066.7 0 960 0C853.3 0 746.7 0 640 0C533.3 0 426.7 0 320 0C213.3 0 106.7 0 53.3 0L0 0Z" fill="#ffc107"></path><path d="M0 422L53.3 420.2C106.7 418.3 213.3 414.7 320 416.5C426.7 418.3 533.3 425.7 640 452.7C746.7 479.7 853.3 526.3 960 533.5C1066.7 540.7 1173.3 508.3 1280 508.3C1386.7 508.3 1493.3 540.7 1600 567.7C1706.7 594.7 1813.3 616.3 1866.7 627.2L1920 638L1920 150L1866.7 184.2C1813.3 218.3 1706.7 286.7 1600 302.8C1493.3 319 1386.7 283 1280 263.3C1173.3 243.7 1066.7 240.3 960 226C853.3 211.7 746.7 186.3 640 168.3C533.3 150.3 426.7 139.7 320 139.7C213.3 139.7 106.7 150.3 53.3 155.7L0 161Z" fill="#a4bb2d"></path><path d="M0 519L53.3 529.8C106.7 540.7 213.3 562.3 320 576.8C426.7 591.3 533.3 598.7 640 627.5C746.7 656.3 853.3 706.7 960 694C1066.7 681.3 1173.3 605.7 1280 582.3C1386.7 559 1493.3 588 1600 615C1706.7 642 1813.3 667 1866.7 679.5L1920 692L1920 636L1866.7 625.2C1813.3 614.3 1706.7 592.7 1600 565.7C1493.3 538.7 1386.7 506.3 1280 506.3C1173.3 506.3 1066.7 538.7 960 531.5C853.3 524.3 746.7 477.7 640 450.7C533.3 423.7 426.7 416.3 320 414.5C213.3 412.7 106.7 416.3 53.3 418.2L0 420Z" fill="#56a956"></path><path d="M0 692L53.3 715.5C106.7 739 213.3 786 320 802.2C426.7 818.3 533.3 803.7 640 798.2C746.7 792.7 853.3 796.3 960 792.8C1066.7 789.3 1173.3 778.7 1280 773.3C1386.7 768 1493.3 768 1600 780.5C1706.7 793 1813.3 818 1866.7 830.5L1920 843L1920 690L1866.7 677.5C1813.3 665 1706.7 640 1600 613C1493.3 586 1386.7 557 1280 580.3C1173.3 603.7 1066.7 679.3 960 692C853.3 704.7 746.7 654.3 640 625.5C533.3 596.7 426.7 589.3 320 574.8C213.3 560.3 106.7 538.7 53.3 527.8L0 517Z" fill="#009070"></path><path d="M0 811L53.3 820C106.7 829 213.3 847 320 852.3C426.7 857.7 533.3 850.3 640 854C746.7 857.7 853.3 872.3 960 883.2C1066.7 894 1173.3 901 1280 892C1386.7 883 1493.3 858 1600 870.7C1706.7 883.3 1813.3 933.7 1866.7 958.8L1920 984L1920 841L1866.7 828.5C1813.3 816 1706.7 791 1600 778.5C1493.3 766 1386.7 766 1280 771.3C1173.3 776.7 1066.7 787.3 960 790.8C853.3 794.3 746.7 790.7 640 796.2C533.3 801.7 426.7 816.3 320 800.2C213.3 784 106.7 737 53.3 713.5L0 690Z" fill="#007375"></path><path d="M0 951L53.3 958.3C106.7 965.7 213.3 980.3 320 976.8C426.7 973.3 533.3 951.7 640 942.7C746.7 933.7 853.3 937.3 960 951.7C1066.7 966 1173.3 991 1280 989.2C1386.7 987.3 1493.3 958.7 1600 958.7C1706.7 958.7 1813.3 987.3 1866.7 1001.7L1920 1016L1920 982L1866.7 956.8C1813.3 931.7 1706.7 881.3 1600 868.7C1493.3 856 1386.7 881 1280 890C1173.3 899 1066.7 892 960 881.2C853.3 870.3 746.7 855.7 640 852C533.3 848.3 426.7 855.7 320 850.3C213.3 845 106.7 827 53.3 818L0 809Z" fill="#275563"></path><path d="M0 1081L53.3 1081C106.7 1081 213.3 1081 320 1081C426.7 1081 533.3 1081 640 1081C746.7 1081 853.3 1081 960 1081C1066.7 1081 1173.3 1081 1280 1081C1386.7 1081 1493.3 1081 1600 1081C1706.7 1081 1813.3 1081 1866.7 1081L1920 1081L1920 1014L1866.7 999.7C1813.3 985.3 1706.7 956.7 1600 956.7C1493.3 956.7 1386.7 985.3 1280 987.2C1173.3 989 1066.7 964 960 949.7C853.3 935.3 746.7 931.7 640 940.7C533.3 949.7 426.7 971.3 320 974.8C213.3 978.3 106.7 963.7 53.3 956.3L0 949Z" fill="#343a40"></path></svg>